<svg width="333" height="405" viewBox="0 0 333 405" fill="none" xmlns="http://www.w3.org/2000/svg">
<g clip-path="url(#clip0_1_1512)">
<rect x="228" y="324" width="9" height="9" rx="4.5" fill="#d1d5db"/>
<rect x="228" y="336" width="9" height="9" rx="4.5" fill="#d1d5db"/>
<rect x="240" y="336" width="9" height="9" rx="4.5" fill="#d1d5db"/>
<rect x="228" y="312" width="9" height="9" rx="4.5" fill="#d1d5db"/>
<rect x="228" y="288" width="9" height="9" rx="4.5" fill="#d1d5db"/>
<rect x="240" y="312" width="9" height="9" rx="4.5" fill="#d1d5db"/>
<rect x="240" y="300" width="9" height="9" rx="4.5" fill="#d1d5db"/>
<rect x="240" y="288" width="9" height="9" rx="4.5" fill="#d1d5db"/>
<rect x="228" y="276" width="9" height="9" rx="4.5" fill="#d1d5db"/>
<rect x="216" y="336" width="9" height="9" rx="4.5" fill="#d1d5db"/>
<rect x="216" y="312" width="9" height="9" rx="4.5" fill="#d1d5db"/>
<rect x="216" y="300" width="9" height="9" rx="4.5" fill="#d1d5db"/>
<rect x="216" y="288" width="9" height="9" rx="4.5" fill="#d1d5db"/>
<rect x="216" y="276" width="9" height="9" rx="4.5" fill="#d1d5db"/>
<rect x="204" y="324" width="9" height="9" rx="4.5" fill="#d1d5db"/>
<rect x="204" y="336" width="9" height="9" rx="4.5" fill="#d1d5db"/>
<rect x="204" y="312" width="9" height="9" rx="4.5" fill="#d1d5db"/>
<rect x="204" y="300" width="9" height="9" rx="4.5" fill="#d1d5db"/>
<rect x="204" y="288" width="9" height="9" rx="4.5" fill="#d1d5db"/>
<rect x="204" y="276" width="9" height="9" rx="4.5" fill="#d1d5db"/>
<rect x="228" y="264" width="9" height="9" rx="4.5" fill="#d1d5db"/>
<rect x="204" y="264" width="9" height="9" rx="4.5" fill="#d1d5db"/>
<rect x="192" y="312" width="9" height="9" rx="4.5" fill="#d1d5db"/>
<rect x="192" y="324" width="9" height="9" rx="4.5" fill="#d1d5db"/>
<rect x="192" y="300" width="9" height="9" rx="4.5" fill="#d1d5db"/>
<rect x="192" y="276" width="9" height="9" rx="4.5" fill="#d1d5db"/>
<rect x="192" y="264" width="9" height="9" rx="4.5" fill="#d1d5db"/>
<rect x="180" y="312" width="9" height="9" rx="4.5" fill="#d1d5db"/>
<rect x="180" y="324" width="9" height="9" rx="4.5" fill="#d1d5db"/>
<rect x="180" y="300" width="9" height="9" rx="4.5" fill="#d1d5db"/>
<rect x="180" y="288" width="9" height="9" rx="4.5" fill="#d1d5db"/>
<rect x="180" y="264" width="9" height="9" rx="4.5" fill="#d1d5db"/>
<rect x="168" y="312" width="9" height="9" rx="4.5" fill="#d1d5db"/>
<rect x="168" y="324" width="9" height="9" rx="4.5" fill="#d1d5db"/>
<rect x="168" y="288" width="9" height="9" rx="4.5" fill="#d1d5db"/>
<rect x="168" y="276" width="9" height="9" rx="4.5" fill="#d1d5db"/>
<rect x="228" y="384" width="9" height="9" rx="4.5" fill="#d1d5db"/>
<rect x="228" y="372" width="9" height="9" rx="4.5" fill="#d1d5db"/>
<rect x="228" y="360" width="9" height="9" rx="4.5" fill="#d1d5db"/>
<rect x="228" y="348" width="9" height="9" rx="4.5" fill="#d1d5db"/>
<rect x="216" y="396" width="9" height="9" rx="4.5" fill="#d1d5db"/>
<rect x="216" y="384" width="9" height="9" rx="4.5" fill="#d1d5db"/>
<rect x="216" y="360" width="9" height="9" rx="4.5" fill="#d1d5db"/>
<rect x="216" y="348" width="9" height="9" rx="4.5" fill="#d1d5db"/>
<rect x="204" y="396" width="9" height="9" rx="4.5" fill="#d1d5db"/>
<rect x="204" y="384" width="9" height="9" rx="4.5" fill="#d1d5db"/>
<rect x="204" y="372" width="9" height="9" rx="4.5" fill="#d1d5db"/>
<rect x="204" y="360" width="9" height="9" rx="4.5" fill="#d1d5db"/>
<rect x="204" y="348" width="9" height="9" rx="4.5" fill="#d1d5db"/>
<rect x="168" y="264" width="9" height="9" rx="4.5" fill="#d1d5db"/>
<rect x="216" y="252" width="9" height="9" rx="4.5" fill="#d1d5db"/>
<rect x="204" y="252" width="9" height="9" rx="4.5" fill="#d1d5db"/>
<rect x="192" y="252" width="9" height="9" rx="4.5" fill="#d1d5db"/>
<rect x="168" y="252" width="9" height="9" rx="4.5" fill="#d1d5db"/>
<rect x="156" y="300" width="9" height="9" rx="4.5" fill="#d1d5db"/>
<rect x="156" y="312" width="9" height="9" rx="4.5" fill="#d1d5db"/>
<rect x="156" y="288" width="9" height="9" rx="4.5" fill="#d1d5db"/>
<rect x="156" y="276" width="9" height="9" rx="4.5" fill="#d1d5db"/>
<rect x="216" y="240" width="9" height="9" rx="4.5" fill="#d1d5db"/>
<rect x="216" y="228" width="9" height="9" rx="4.5" fill="#d1d5db"/>
<rect x="216" y="216" width="9" height="9" rx="4.5" fill="#d1d5db"/>
<rect x="204" y="240" width="9" height="9" rx="4.5" fill="#d1d5db"/>
<rect x="204" y="216" width="9" height="9" rx="4.5" fill="#d1d5db"/>
<rect x="216" y="204" width="9" height="9" rx="4.5" fill="#d1d5db"/>
<rect x="204" y="204" width="9" height="9" rx="4.5" fill="#d1d5db"/>
<rect x="192" y="240" width="9" height="9" rx="4.5" fill="#d1d5db"/>
<rect x="192" y="228" width="9" height="9" rx="4.5" fill="#d1d5db"/>
<rect x="192" y="216" width="9" height="9" rx="4.5" fill="#d1d5db"/>
<rect x="192" y="204" width="9" height="9" rx="4.5" fill="#d1d5db"/>
<rect x="180" y="240" width="9" height="9" rx="4.5" fill="#d1d5db"/>
<rect x="180" y="228" width="9" height="9" rx="4.5" fill="#d1d5db"/>
<rect x="180" y="216" width="9" height="9" rx="4.5" fill="#d1d5db"/>
<rect x="180" y="204" width="9" height="9" rx="4.5" fill="#d1d5db"/>
<rect x="168" y="240" width="9" height="9" rx="4.5" fill="#d1d5db"/>
<rect x="168" y="228" width="9" height="9" rx="4.5" fill="#d1d5db"/>
<rect x="168" y="216" width="9" height="9" rx="4.5" fill="#d1d5db"/>
<rect x="168" y="204" width="9" height="9" rx="4.5" fill="#d1d5db"/>
<rect x="216" y="192" width="9" height="9" rx="4.5" fill="#d1d5db"/>
<rect x="204" y="192" width="9" height="9" rx="4.5" fill="#d1d5db"/>
<rect x="192" y="192" width="9" height="9" rx="4.5" fill="#d1d5db"/>
<rect x="180" y="192" width="9" height="9" rx="4.5" fill="#d1d5db"/>
<rect x="168" y="192" width="9" height="9" rx="4.5" fill="#d1d5db"/>
<rect x="156" y="228" width="9" height="9" rx="4.5" fill="#d1d5db"/>
<rect x="156" y="216" width="9" height="9" rx="4.5" fill="#d1d5db"/>
<rect x="156" y="204" width="9" height="9" rx="4.5" fill="#d1d5db"/>
<rect x="288" y="228" width="9" height="9" rx="4.5" fill="#d1d5db"/>
<rect x="288" y="216" width="9" height="9" rx="4.5" fill="#d1d5db"/>
<rect x="276" y="228" width="9" height="9" rx="4.5" fill="#d1d5db"/>
<rect x="276" y="216" width="9" height="9" rx="4.5" fill="#d1d5db"/>
<rect x="288" y="204" width="9" height="9" rx="4.5" fill="#d1d5db"/>
<rect x="276" y="204" width="9" height="9" rx="4.5" fill="#d1d5db"/>
<rect x="264" y="228" width="9" height="9" rx="4.5" fill="#d1d5db"/>
<rect x="264" y="240" width="9" height="9" rx="4.5" fill="#d1d5db"/>
<rect x="264" y="216" width="9" height="9" rx="4.5" fill="#d1d5db"/>
<rect x="264" y="204" width="9" height="9" rx="4.5" fill="#d1d5db"/>
<rect x="252" y="228" width="9" height="9" rx="4.5" fill="#d1d5db"/>
<rect x="252" y="216" width="9" height="9" rx="4.5" fill="#d1d5db"/>
<rect x="252" y="204" width="9" height="9" rx="4.5" fill="#d1d5db"/>
<rect x="240" y="228" width="9" height="9" rx="4.5" fill="#d1d5db"/>
<rect x="240" y="216" width="9" height="9" rx="4.5" fill="#d1d5db"/>
<rect x="240" y="204" width="9" height="9" rx="4.5" fill="#d1d5db"/>
<rect x="288" y="192" width="9" height="9" rx="4.5" fill="#d1d5db"/>
<rect x="276" y="192" width="9" height="9" rx="4.5" fill="#d1d5db"/>
<rect x="264" y="192" width="9" height="9" rx="4.5" fill="#d1d5db"/>
<rect x="252" y="192" width="9" height="9" rx="4.5" fill="#d1d5db"/>
<rect x="240" y="192" width="9" height="9" rx="4.5" fill="#d1d5db"/>
<rect x="228" y="228" width="9" height="9" rx="4.5" fill="#d1d5db"/>
<rect x="228" y="240" width="9" height="9" rx="4.5" fill="#d1d5db"/>
<rect x="228" y="216" width="9" height="9" rx="4.5" fill="#d1d5db"/>
<rect x="228" y="204" width="9" height="9" rx="4.5" fill="#d1d5db"/>
<rect x="228" y="192" width="9" height="9" rx="4.5" fill="#d1d5db"/>
<rect x="216" y="168" width="9" height="9" rx="4.5" fill="#d1d5db"/>
<rect x="204" y="180" width="9" height="9" rx="4.5" fill="#d1d5db"/>
<rect x="204" y="168" width="9" height="9" rx="4.5" fill="#d1d5db"/>
<rect x="216" y="156" width="9" height="9" rx="4.5" fill="#d1d5db"/>
<rect x="204" y="156" width="9" height="9" rx="4.5" fill="#d1d5db"/>
<rect x="192" y="180" width="9" height="9" rx="4.5" fill="#d1d5db"/>
<rect x="192" y="168" width="9" height="9" rx="4.5" fill="#d1d5db"/>
<rect x="192" y="156" width="9" height="9" rx="4.5" fill="#d1d5db"/>
<rect x="180" y="168" width="9" height="9" rx="4.5" fill="#d1d5db"/>
<rect x="180" y="156" width="9" height="9" rx="4.5" fill="#d1d5db"/>
<rect x="168" y="180" width="9" height="9" rx="4.5" fill="#d1d5db"/>
<rect x="168" y="168" width="9" height="9" rx="4.5" fill="#d1d5db"/>
<rect x="168" y="156" width="9" height="9" rx="4.5" fill="#d1d5db"/>
<rect x="216" y="144" width="9" height="9" rx="4.5" fill="#d1d5db"/>
<rect x="204" y="144" width="9" height="9" rx="4.5" fill="#d1d5db"/>
<rect x="192" y="144" width="9" height="9" rx="4.5" fill="#d1d5db"/>
<rect x="180" y="144" width="9" height="9" rx="4.5" fill="#d1d5db"/>
<rect x="156" y="180" width="9" height="9" rx="4.5" fill="#d1d5db"/>
<rect x="144" y="228" width="9" height="9" rx="4.5" fill="#d1d5db"/>
<rect x="144" y="216" width="9" height="9" rx="4.5" fill="#d1d5db"/>
<rect x="132" y="228" width="9" height="9" rx="4.5" fill="#d1d5db"/>
<rect x="132" y="216" width="9" height="9" rx="4.5" fill="#d1d5db"/>
<rect x="120" y="228" width="9" height="9" rx="4.5" fill="#d1d5db"/>
<rect x="120" y="216" width="9" height="9" rx="4.5" fill="#d1d5db"/>
<rect x="120" y="204" width="9" height="9" rx="4.5" fill="#d1d5db"/>
<rect x="108" y="228" width="9" height="9" rx="4.5" fill="#d1d5db"/>
<rect x="108" y="216" width="9" height="9" rx="4.5" fill="#d1d5db"/>
<rect x="108" y="204" width="9" height="9" rx="4.5" fill="#d1d5db"/>
<rect x="96" y="216" width="9" height="9" rx="4.5" fill="#d1d5db"/>
<rect x="96" y="204" width="9" height="9" rx="4.5" fill="#d1d5db"/>
<rect x="144" y="192" width="9" height="9" rx="4.5" fill="#d1d5db"/>
<rect x="132" y="192" width="9" height="9" rx="4.5" fill="#d1d5db"/>
<rect x="120" y="192" width="9" height="9" rx="4.5" fill="#d1d5db"/>
<rect x="108" y="192" width="9" height="9" rx="4.5" fill="#d1d5db"/>
<rect x="96" y="192" width="9" height="9" rx="4.5" fill="#d1d5db"/>
<rect x="84" y="228" width="9" height="9" rx="4.5" fill="#d1d5db"/>
<rect x="84" y="216" width="9" height="9" rx="4.5" fill="#d1d5db"/>
<rect x="84" y="204" width="9" height="9" rx="4.5" fill="#d1d5db"/>
<rect x="84" y="192" width="9" height="9" rx="4.5" fill="#d1d5db"/>
<rect x="144" y="180" width="9" height="9" rx="4.5" fill="#d1d5db"/>
<rect x="132" y="180" width="9" height="9" rx="4.5" fill="#d1d5db"/>
<rect x="120" y="180" width="9" height="9" rx="4.5" fill="#d1d5db"/>
<rect x="108" y="180" width="9" height="9" rx="4.5" fill="#d1d5db"/>
<rect x="96" y="180" width="9" height="9" rx="4.5" fill="#d1d5db"/>
<rect x="132" y="168" width="9" height="9" rx="4.5" fill="#d1d5db"/>
<rect x="120" y="168" width="9" height="9" rx="4.5" fill="#d1d5db"/>
<rect x="108" y="168" width="9" height="9" rx="4.5" fill="#d1d5db"/>
<rect x="132" y="156" width="9" height="9" rx="4.5" fill="#d1d5db"/>
<rect x="132" y="144" width="9" height="9" rx="4.5" fill="#d1d5db"/>
<rect x="120" y="156" width="9" height="9" rx="4.5" fill="#d1d5db"/>
<rect x="120" y="144" width="9" height="9" rx="4.5" fill="#d1d5db"/>
<rect x="108" y="156" width="9" height="9" rx="4.5" fill="#d1d5db"/>
<rect x="108" y="144" width="9" height="9" rx="4.5" fill="#d1d5db"/>
<rect x="132" y="132" width="9" height="9" rx="4.5" fill="#d1d5db"/>
<rect x="108" y="132" width="9" height="9" rx="4.5" fill="#d1d5db"/>
<rect x="132" y="120" width="9" height="9" rx="4.5" fill="#d1d5db"/>
<rect x="120" y="120" width="9" height="9" rx="4.5" fill="#d1d5db"/>
<rect x="108" y="120" width="9" height="9" rx="4.5" fill="#d1d5db"/>
<rect x="132" y="108" width="9" height="9" rx="4.5" fill="#d1d5db"/>
<rect x="120" y="108" width="9" height="9" rx="4.5" fill="#d1d5db"/>
<rect x="156" y="120" width="9" height="9" rx="4.5" fill="#d1d5db"/>
<rect x="144" y="120" width="9" height="9" rx="4.5" fill="#d1d5db"/>
<rect x="156" y="108" width="9" height="9" rx="4.5" fill="#d1d5db"/>
<rect x="144" y="108" width="9" height="9" rx="4.5" fill="#d1d5db"/>
<rect x="108" y="108" width="9" height="9" rx="4.5" fill="#d1d5db"/>
<rect x="156" y="72" width="9" height="9" rx="4.5" fill="#d1d5db"/>
<rect x="108" y="72" width="9" height="9" rx="4.5" fill="#d1d5db"/>
<rect x="132" y="96" width="9" height="9" rx="4.5" fill="#d1d5db"/>
<rect x="120" y="96" width="9" height="9" rx="4.5" fill="#d1d5db"/>
<rect x="108" y="96" width="9" height="9" rx="4.5" fill="#d1d5db"/>
<rect x="132" y="84" width="9" height="9" rx="4.5" fill="#d1d5db"/>
<rect x="120" y="84" width="9" height="9" rx="4.5" fill="#d1d5db"/>
<rect x="132" y="60" width="9" height="9" rx="4.5" fill="#d1d5db"/>
<rect x="120" y="60" width="9" height="9" rx="4.5" fill="#d1d5db"/>
<rect x="132" y="48" width="9" height="9" rx="4.5" fill="#d1d5db"/>
<rect x="120" y="48" width="9" height="9" rx="4.5" fill="#d1d5db"/>
<rect x="144" y="96" width="9" height="9" rx="4.5" fill="#d1d5db"/>
<rect x="144" y="84" width="9" height="9" rx="4.5" fill="#d1d5db"/>
<rect x="96" y="168" width="9" height="9" rx="4.5" fill="#d1d5db"/>
<rect x="156" y="168" width="9" height="9" rx="4.5" fill="#d1d5db"/>
<rect x="288" y="180" width="9" height="9" rx="4.5" fill="#d1d5db"/>
<rect x="288" y="168" width="9" height="9" rx="4.5" fill="#d1d5db"/>
<rect x="276" y="180" width="9" height="9" rx="4.5" fill="#d1d5db"/>
<rect x="276" y="168" width="9" height="9" rx="4.5" fill="#d1d5db"/>
<rect x="288" y="156" width="9" height="9" rx="4.5" fill="#d1d5db"/>
<rect x="276" y="156" width="9" height="9" rx="4.5" fill="#d1d5db"/>
<rect x="300" y="192" width="9" height="9" rx="4.5" fill="#d1d5db"/>
<rect x="312" y="180" width="9" height="9" rx="4.5" fill="#d1d5db"/>
<rect x="312" y="168" width="9" height="9" rx="4.5" fill="#d1d5db"/>
<rect x="300" y="180" width="9" height="9" rx="4.5" fill="#d1d5db"/>
<rect x="300" y="168" width="9" height="9" rx="4.5" fill="#d1d5db"/>
<rect x="312" y="156" width="9" height="9" rx="4.5" fill="#d1d5db"/>
<rect x="300" y="156" width="9" height="9" rx="4.5" fill="#d1d5db"/>
<rect x="264" y="180" width="9" height="9" rx="4.5" fill="#d1d5db"/>
<rect x="264" y="168" width="9" height="9" rx="4.5" fill="#d1d5db"/>
<rect x="264" y="156" width="9" height="9" rx="4.5" fill="#d1d5db"/>
<rect x="252" y="180" width="9" height="9" rx="4.5" fill="#d1d5db"/>
<rect x="252" y="168" width="9" height="9" rx="4.5" fill="#d1d5db"/>
<rect x="252" y="156" width="9" height="9" rx="4.5" fill="#d1d5db"/>
<rect x="240" y="180" width="9" height="9" rx="4.5" fill="#d1d5db"/>
<rect x="240" y="168" width="9" height="9" rx="4.5" fill="#d1d5db"/>
<rect x="240" y="156" width="9" height="9" rx="4.5" fill="#d1d5db"/>
<rect x="276" y="144" width="9" height="9" rx="4.5" fill="#d1d5db"/>
<rect x="264" y="144" width="9" height="9" rx="4.5" fill="#d1d5db"/>
<rect x="252" y="144" width="9" height="9" rx="4.5" fill="#d1d5db"/>
<rect x="240" y="144" width="9" height="9" rx="4.5" fill="#d1d5db"/>
<rect x="228" y="180" width="9" height="9" rx="4.5" fill="#d1d5db"/>
<rect x="228" y="168" width="9" height="9" rx="4.5" fill="#d1d5db"/>
<rect x="228" y="156" width="9" height="9" rx="4.5" fill="#d1d5db"/>
<rect x="228" y="144" width="9" height="9" rx="4.5" fill="#d1d5db"/>
<rect x="216" y="84" width="9" height="9" rx="4.5" fill="#d1d5db"/>
<rect x="216" y="72" width="9" height="9" rx="4.5" fill="#d1d5db"/>
<rect x="204" y="84" width="9" height="9" rx="4.5" fill="#d1d5db"/>
<rect x="204" y="72" width="9" height="9" rx="4.5" fill="#d1d5db"/>
<rect x="216" y="60" width="9" height="9" rx="4.5" fill="#d1d5db"/>
<rect x="204" y="60" width="9" height="9" rx="4.5" fill="#d1d5db"/>
<rect x="192" y="84" width="9" height="9" rx="4.5" fill="#d1d5db"/>
<rect x="192" y="72" width="9" height="9" rx="4.5" fill="#d1d5db"/>
<rect x="192" y="60" width="9" height="9" rx="4.5" fill="#d1d5db"/>
<rect x="216" y="48" width="9" height="9" rx="4.5" fill="#d1d5db"/>
<rect x="204" y="48" width="9" height="9" rx="4.5" fill="#d1d5db"/>
<rect x="192" y="48" width="9" height="9" rx="4.5" fill="#d1d5db"/>
<rect x="276" y="84" width="9" height="9" rx="4.5" fill="#d1d5db"/>
<rect x="276" y="72" width="9" height="9" rx="4.5" fill="#d1d5db"/>
<rect x="276" y="60" width="9" height="9" rx="4.5" fill="#d1d5db"/>
<rect x="264" y="84" width="9" height="9" rx="4.5" fill="#d1d5db"/>
<rect x="264" y="72" width="9" height="9" rx="4.5" fill="#d1d5db"/>
<rect x="264" y="60" width="9" height="9" rx="4.5" fill="#d1d5db"/>
<rect x="252" y="84" width="9" height="9" rx="4.5" fill="#d1d5db"/>
<rect x="252" y="72" width="9" height="9" rx="4.5" fill="#d1d5db"/>
<rect x="252" y="60" width="9" height="9" rx="4.5" fill="#d1d5db"/>
<rect x="240" y="84" width="9" height="9" rx="4.5" fill="#d1d5db"/>
<rect x="240" y="72" width="9" height="9" rx="4.5" fill="#d1d5db"/>
<rect x="240" y="60" width="9" height="9" rx="4.5" fill="#d1d5db"/>
<rect x="276" y="48" width="9" height="9" rx="4.5" fill="#d1d5db"/>
<rect x="264" y="48" width="9" height="9" rx="4.5" fill="#d1d5db"/>
<rect x="252" y="48" width="9" height="9" rx="4.5" fill="#d1d5db"/>
<rect x="240" y="48" width="9" height="9" rx="4.5" fill="#d1d5db"/>
<rect x="228" y="84" width="9" height="9" rx="4.5" fill="#d1d5db"/>
<rect x="228" y="60" width="9" height="9" rx="4.5" fill="#d1d5db"/>
<rect x="228" y="48" width="9" height="9" rx="4.5" fill="#d1d5db"/>
<rect x="216" y="132" width="9" height="9" rx="4.5" fill="#d1d5db"/>
<rect x="216" y="120" width="9" height="9" rx="4.5" fill="#d1d5db"/>
<rect x="204" y="132" width="9" height="9" rx="4.5" fill="#d1d5db"/>
<rect x="204" y="120" width="9" height="9" rx="4.5" fill="#d1d5db"/>
<rect x="216" y="108" width="9" height="9" rx="4.5" fill="#d1d5db"/>
<rect x="204" y="108" width="9" height="9" rx="4.5" fill="#d1d5db"/>
<rect x="192" y="132" width="9" height="9" rx="4.5" fill="#d1d5db"/>
<rect x="192" y="120" width="9" height="9" rx="4.5" fill="#d1d5db"/>
<rect x="192" y="108" width="9" height="9" rx="4.5" fill="#d1d5db"/>
<rect x="216" y="96" width="9" height="9" rx="4.5" fill="#d1d5db"/>
<rect x="204" y="96" width="9" height="9" rx="4.5" fill="#d1d5db"/>
<rect x="180" y="84" width="9" height="9" rx="4.5" fill="#d1d5db"/>
<rect x="180" y="72" width="9" height="9" rx="4.5" fill="#d1d5db"/>
<rect x="180" y="60" width="9" height="9" rx="4.5" fill="#d1d5db"/>
<rect x="168" y="60" width="9" height="9" rx="4.5" fill="#d1d5db"/>
<rect x="180" y="48" width="9" height="9" rx="4.5" fill="#d1d5db"/>
<rect x="168" y="48" width="9" height="9" rx="4.5" fill="#d1d5db"/>
<rect x="180" y="96" width="9" height="9" rx="4.5" fill="#d1d5db"/>
<rect x="192" y="96" width="9" height="9" rx="4.5" fill="#d1d5db"/>
<rect x="276" y="132" width="9" height="9" rx="4.5" fill="#d1d5db"/>
<rect x="276" y="120" width="9" height="9" rx="4.5" fill="#d1d5db"/>
<rect x="276" y="108" width="9" height="9" rx="4.5" fill="#d1d5db"/>
<rect x="264" y="132" width="9" height="9" rx="4.5" fill="#d1d5db"/>
<rect x="264" y="120" width="9" height="9" rx="4.5" fill="#d1d5db"/>
<rect x="264" y="108" width="9" height="9" rx="4.5" fill="#d1d5db"/>
<rect x="252" y="132" width="9" height="9" rx="4.5" fill="#d1d5db"/>
<rect x="252" y="120" width="9" height="9" rx="4.5" fill="#d1d5db"/>
<rect x="252" y="108" width="9" height="9" rx="4.5" fill="#d1d5db"/>
<rect x="240" y="132" width="9" height="9" rx="4.5" fill="#d1d5db"/>
<rect x="240" y="120" width="9" height="9" rx="4.5" fill="#d1d5db"/>
<rect x="240" y="108" width="9" height="9" rx="4.5" fill="#d1d5db"/>
<rect x="276" y="96" width="9" height="9" rx="4.5" fill="#d1d5db"/>
<rect x="264" y="96" width="9" height="9" rx="4.5" fill="#d1d5db"/>
<rect x="252" y="96" width="9" height="9" rx="4.5" fill="#d1d5db"/>
<rect x="312" y="84" width="9" height="9" rx="4.5" fill="#d1d5db"/>
<rect x="312" y="72" width="9" height="9" rx="4.5" fill="#d1d5db"/>
<rect x="312" y="60" width="9" height="9" rx="4.5" fill="#d1d5db"/>
<rect x="300" y="84" width="9" height="9" rx="4.5" fill="#d1d5db"/>
<rect x="300" y="72" width="9" height="9" rx="4.5" fill="#d1d5db"/>
<rect x="300" y="60" width="9" height="9" rx="4.5" fill="#d1d5db"/>
<rect x="288" y="84" width="9" height="9" rx="4.5" fill="#d1d5db"/>
<rect x="288" y="72" width="9" height="9" rx="4.5" fill="#d1d5db"/>
<rect x="288" y="60" width="9" height="9" rx="4.5" fill="#d1d5db"/>
<rect x="312" y="48" width="9" height="9" rx="4.5" fill="#d1d5db"/>
<rect x="300" y="48" width="9" height="9" rx="4.5" fill="#d1d5db"/>
<rect x="288" y="48" width="9" height="9" rx="4.5" fill="#d1d5db"/>
<rect x="216" y="36" width="9" height="9" rx="4.5" fill="#d1d5db"/>
<rect x="204" y="36" width="9" height="9" rx="4.5" fill="#d1d5db"/>
<rect x="192" y="36" width="9" height="9" rx="4.5" fill="#d1d5db"/>
<rect x="276" y="36" width="9" height="9" rx="4.5" fill="#d1d5db"/>
<rect x="252" y="36" width="9" height="9" rx="4.5" fill="#d1d5db"/>
<rect x="240" y="36" width="9" height="9" rx="4.5" fill="#d1d5db"/>
<rect x="228" y="36" width="9" height="9" rx="4.5" fill="#d1d5db"/>
<rect x="180" y="36" width="9" height="9" rx="4.5" fill="#d1d5db"/>
<rect x="312" y="36" width="9" height="9" rx="4.5" fill="#d1d5db"/>
<rect x="324" y="84" width="9" height="9" rx="4.5" fill="#d1d5db"/>
<rect x="324" y="72" width="9" height="9" rx="4.5" fill="#d1d5db"/>
<rect x="324" y="60" width="9" height="9" rx="4.5" fill="#d1d5db"/>
<rect x="324" y="48" width="9" height="9" rx="4.5" fill="#d1d5db"/>
<rect x="324" y="36" width="9" height="9" rx="4.5" fill="#d1d5db"/>
<rect x="300" y="36" width="9" height="9" rx="4.5" fill="#d1d5db"/>
<rect x="288" y="36" width="9" height="9" rx="4.5" fill="#d1d5db"/>
<rect x="216" y="24" width="9" height="9" rx="4.5" fill="#d1d5db"/>
<rect x="204" y="24" width="9" height="9" rx="4.5" fill="#d1d5db"/>
<rect x="276" y="24" width="9" height="9" rx="4.5" fill="#d1d5db"/>
<rect x="264" y="24" width="9" height="9" rx="4.5" fill="#d1d5db"/>
<rect x="252" y="24" width="9" height="9" rx="4.5" fill="#d1d5db"/>
<rect x="240" y="24" width="9" height="9" rx="4.5" fill="#d1d5db"/>
<rect x="228" y="24" width="9" height="9" rx="4.5" fill="#d1d5db"/>
<rect x="300" y="24" width="9" height="9" rx="4.5" fill="#d1d5db"/>
<rect x="288" y="24" width="9" height="9" rx="4.5" fill="#d1d5db"/>
<rect x="300" y="12" width="9" height="9" rx="4.5" fill="#d1d5db"/>
<rect x="288" y="12" width="9" height="9" rx="4.5" fill="#d1d5db"/>
<rect x="276" y="12" width="9" height="9" rx="4.5" fill="#d1d5db"/>
<rect x="264" y="12" width="9" height="9" rx="4.5" fill="#d1d5db"/>
<rect x="252" width="9" height="9" rx="4.5" fill="#d1d5db"/>
<rect x="240" width="9" height="9" rx="4.5" fill="#d1d5db"/>
<rect x="216" width="9" height="9" rx="4.5" fill="#d1d5db"/>
<rect x="204" width="9" height="9" rx="4.5" fill="#d1d5db"/>
<rect x="192" width="9" height="9" rx="4.5" fill="#d1d5db"/>
<rect x="180" y="12" width="9" height="9" rx="4.5" fill="#d1d5db"/>
<rect x="168" y="12" width="9" height="9" rx="4.5" fill="#d1d5db"/>
<rect x="156" y="12" width="9" height="9" rx="4.5" fill="#d1d5db"/>
<rect x="144" y="24" width="9" height="9" rx="4.5" fill="#d1d5db"/>
<rect x="144" y="36" width="9" height="9" rx="4.5" fill="#d1d5db"/>
<rect x="132" y="36" width="9" height="9" rx="4.5" fill="#d1d5db"/>
<rect x="312" y="120" width="9" height="9" rx="4.5" fill="#d1d5db"/>
<rect x="312" y="108" width="9" height="9" rx="4.5" fill="#d1d5db"/>
<rect x="300" y="120" width="9" height="9" rx="4.5" fill="#d1d5db"/>
<rect x="300" y="108" width="9" height="9" rx="4.5" fill="#d1d5db"/>
<rect x="288" y="132" width="9" height="9" rx="4.5" fill="#d1d5db"/>
<rect x="288" y="120" width="9" height="9" rx="4.5" fill="#d1d5db"/>
<rect x="288" y="108" width="9" height="9" rx="4.5" fill="#d1d5db"/>
<rect x="312" y="96" width="9" height="9" rx="4.5" fill="#d1d5db"/>
<rect x="300" y="96" width="9" height="9" rx="4.5" fill="#d1d5db"/>
<rect x="288" y="96" width="9" height="9" rx="4.5" fill="#d1d5db"/>
<rect x="240" y="96" width="9" height="9" rx="4.5" fill="#d1d5db"/>
<rect x="228" y="132" width="9" height="9" rx="4.5" fill="#d1d5db"/>
<rect x="228" y="120" width="9" height="9" rx="4.5" fill="#d1d5db"/>
<rect x="228" y="108" width="9" height="9" rx="4.5" fill="#d1d5db"/>
<rect x="228" y="96" width="9" height="9" rx="4.5" fill="#d1d5db"/>
<rect x="144" y="288" width="9" height="9" rx="4.5" fill="#d1d5db"/>
<rect x="144" y="300" width="9" height="9" rx="4.5" fill="#d1d5db"/>
<rect x="144" y="264" width="9" height="9" rx="4.5" fill="#d1d5db"/>
<rect x="144" y="252" width="9" height="9" rx="4.5" fill="#d1d5db"/>
<rect x="144" y="240" width="9" height="9" rx="4.5" fill="#d1d5db"/>
<rect x="132" y="288" width="9" height="9" rx="4.5" fill="#d1d5db"/>
<rect x="132" y="300" width="9" height="9" rx="4.5" fill="#d1d5db"/>
<rect x="120" y="300" width="9" height="9" rx="4.5" fill="#d1d5db"/>
<rect x="132" y="276" width="9" height="9" rx="4.5" fill="#d1d5db"/>
<rect x="132" y="264" width="9" height="9" rx="4.5" fill="#d1d5db"/>
<rect x="132" y="240" width="9" height="9" rx="4.5" fill="#d1d5db"/>
<rect x="120" y="288" width="9" height="9" rx="4.5" fill="#d1d5db"/>
<rect x="120" y="276" width="9" height="9" rx="4.5" fill="#d1d5db"/>
<rect x="120" y="264" width="9" height="9" rx="4.5" fill="#d1d5db"/>
<rect x="108" y="288" width="9" height="9" rx="4.5" fill="#d1d5db"/>
<rect x="108" y="264" width="9" height="9" rx="4.5" fill="#d1d5db"/>
<rect x="96" y="288" width="9" height="9" rx="4.5" fill="#d1d5db"/>
<rect x="96" y="276" width="9" height="9" rx="4.5" fill="#d1d5db"/>
<rect x="96" y="264" width="9" height="9" rx="4.5" fill="#d1d5db"/>
<rect x="120" y="252" width="9" height="9" rx="4.5" fill="#d1d5db"/>
<rect x="108" y="252" width="9" height="9" rx="4.5" fill="#d1d5db"/>
<rect x="96" y="252" width="9" height="9" rx="4.5" fill="#d1d5db"/>
<rect x="84" y="288" width="9" height="9" rx="4.5" fill="#d1d5db"/>
<rect x="84" y="276" width="9" height="9" rx="4.5" fill="#d1d5db"/>
<rect x="84" y="264" width="9" height="9" rx="4.5" fill="#d1d5db"/>
<rect x="84" y="252" width="9" height="9" rx="4.5" fill="#d1d5db"/>
<rect x="120" y="240" width="9" height="9" rx="4.5" fill="#d1d5db"/>
<rect x="108" y="240" width="9" height="9" rx="4.5" fill="#d1d5db"/>
<rect x="72" y="288" width="9" height="9" rx="4.5" fill="#d1d5db"/>
<rect x="72" y="276" width="9" height="9" rx="4.5" fill="#d1d5db"/>
<rect x="72" y="264" width="9" height="9" rx="4.5" fill="#d1d5db"/>
<rect x="72" y="252" width="9" height="9" rx="4.5" fill="#d1d5db"/>
<rect x="72" y="240" width="9" height="9" rx="4.5" fill="#d1d5db"/>
<rect x="60" y="288" width="9" height="9" rx="4.5" fill="#d1d5db"/>
<rect x="60" y="276" width="9" height="9" rx="4.5" fill="#d1d5db"/>
<rect x="60" y="264" width="9" height="9" rx="4.5" fill="#d1d5db"/>
<rect x="60" y="252" width="9" height="9" rx="4.5" fill="#d1d5db"/>
<rect x="60" y="240" width="9" height="9" rx="4.5" fill="#d1d5db"/>
<rect x="72" y="228" width="9" height="9" rx="4.5" fill="#d1d5db"/>
<rect x="72" y="216" width="9" height="9" rx="4.5" fill="#d1d5db"/>
<rect x="72" y="204" width="9" height="9" rx="4.5" fill="#d1d5db"/>
<rect x="60" y="228" width="9" height="9" rx="4.5" fill="#d1d5db"/>
<rect x="48" y="288" width="9" height="9" rx="4.5" fill="#d1d5db"/>
<rect x="48" y="276" width="9" height="9" rx="4.5" fill="#d1d5db"/>
<rect x="48" y="264" width="9" height="9" rx="4.5" fill="#d1d5db"/>
<rect x="48" y="252" width="9" height="9" rx="4.5" fill="#d1d5db"/>
<rect x="24" y="252" width="9" height="9" rx="4.5" fill="#d1d5db"/>
<rect x="48" y="240" width="9" height="9" rx="4.5" fill="#d1d5db"/>
<rect x="36" y="288" width="9" height="9" rx="4.5" fill="#d1d5db"/>
<rect x="84" y="300" width="9" height="9" rx="4.5" fill="#d1d5db"/>
<rect x="72" y="300" width="9" height="9" rx="4.5" fill="#d1d5db"/>
<rect x="60" y="300" width="9" height="9" rx="4.5" fill="#d1d5db"/>
<rect x="48" y="300" width="9" height="9" rx="4.5" fill="#d1d5db"/>
<rect x="36" y="300" width="9" height="9" rx="4.5" fill="#d1d5db"/>
<rect x="36" y="276" width="9" height="9" rx="4.5" fill="#d1d5db"/>
<rect x="24" y="288" width="9" height="9" rx="4.5" fill="#d1d5db"/>
<rect x="24" y="300" width="9" height="9" rx="4.5" fill="#d1d5db"/>
<rect x="60" y="312" width="9" height="9" rx="4.5" fill="#d1d5db"/>
<rect x="48" y="312" width="9" height="9" rx="4.5" fill="#d1d5db"/>
<rect x="36" y="312" width="9" height="9" rx="4.5" fill="#d1d5db"/>
<rect y="324" width="9" height="9" rx="4.5" fill="#d1d5db"/>
<rect x="48" y="324" width="9" height="9" rx="4.5" fill="#d1d5db"/>
<rect x="36" y="324" width="9" height="9" rx="4.5" fill="#d1d5db"/>
<rect x="24" y="312" width="9" height="9" rx="4.5" fill="#d1d5db"/>
<rect x="12" y="312" width="9" height="9" rx="4.5" fill="#d1d5db"/>
<rect y="312" width="9" height="9" rx="4.5" fill="#d1d5db"/>
<rect x="24" y="276" width="9" height="9" rx="4.5" fill="#d1d5db"/>
<rect x="12" y="288" width="9" height="9" rx="4.5" fill="#d1d5db"/>
<rect x="12" y="276" width="9" height="9" rx="4.5" fill="#d1d5db"/>
<rect y="288" width="9" height="9" rx="4.5" fill="#d1d5db"/>
<rect y="276" width="9" height="9" rx="4.5" fill="#d1d5db"/>
<rect x="36" y="264" width="9" height="9" rx="4.5" fill="#d1d5db"/>
<rect x="36" y="252" width="9" height="9" rx="4.5" fill="#d1d5db"/>
<rect x="36" y="240" width="9" height="9" rx="4.5" fill="#d1d5db"/>
<rect x="48" y="228" width="9" height="9" rx="4.5" fill="#d1d5db"/>
<rect x="60" y="216" width="9" height="9" rx="4.5" fill="#d1d5db"/>
<rect x="216" y="180" width="9" height="9" rx="4.5" fill="#FEE40A"/>
<rect x="144" y="204" width="9" height="9" rx="4.5" fill="#FEE40A"/>
<rect x="216" y="264" width="9" height="9" rx="4.5" fill="#DC0128"/>
<rect x="180" y="276" width="9" height="9" rx="4.5" fill="#DC0128"/>
<rect x="156" y="264" width="9" height="9" rx="4.5" fill="#DC0128"/>
<rect x="180" y="180" width="9" height="9" rx="4.5" fill="#DC0128"/>
<rect x="120" y="132" width="9" height="9" rx="4.5" fill="#DC0128"/>
<rect x="228" y="72" width="9" height="9" rx="4.5" fill="#DC0128"/>
<rect x="264" y="36" width="9" height="9" rx="4.5" fill="#DC0128"/>
<rect x="132" y="252" width="9" height="9" rx="4.5" fill="#DC0128"/>
<rect x="84" y="240" width="9" height="9" rx="4.5" fill="#DC0128"/>
<rect x="228" y="300" width="9" height="9" rx="4.5" fill="#0137FF"/>
<rect x="216" y="324" width="9" height="9" rx="4.5" fill="#0137FF"/>
<rect x="192" y="288" width="9" height="9" rx="4.5" fill="#0137FF"/>
<rect x="168" y="300" width="9" height="9" rx="4.5" fill="#0137FF"/>
<rect x="216" y="372" width="9" height="9" rx="4.5" fill="#0137FF"/>
<rect x="192" y="384" width="9" height="9" rx="4.5" fill="#0137FF"/>
<rect x="180" y="252" width="9" height="9" rx="4.5" fill="#0137FF"/>
<rect x="156" y="252" width="9" height="9" rx="4.5" fill="#0137FF"/>
<rect x="204" y="228" width="9" height="9" rx="4.5" fill="#0137FF"/>
<rect x="156" y="240" width="9" height="9" rx="4.5" fill="#0137FF"/>
<rect x="156" y="192" width="9" height="9" rx="4.5" fill="#0137FF"/>
<rect x="132" y="204" width="9" height="9" rx="4.5" fill="#0137FF"/>
<rect x="96" y="228" width="9" height="9" rx="4.5" fill="#0137FF"/>
<rect x="144" y="276" width="9" height="9" rx="4.5" fill="#0137FF"/>
<rect x="108" y="276" width="9" height="9" rx="4.5" fill="#0137FF"/>
<rect x="96" y="240" width="9" height="9" rx="4.5" fill="#0137FF"/>
<rect x="84" y="288" width="9" height="9" rx="4.5" fill="#0137FF"/>
<rect x="36" y="288" width="9" height="9" rx="4.5" fill="#0137FF"/>
</g>
</svg>
