<svg xmlns="http://www.w3.org/2000/svg" preserveAspectRatio="none" width="120" height="16"><rect id="backgroundrect" width="100%" height="100%" x="0" y="0" fill="none" stroke="none"/>
  
<g class="currentLayer" style=""><title>Layer 1</title><g id="svg_1" class="selected" fill="#ffffff" fill-opacity="1">
    <path d="M10.376,6.313 H6.02 V3.9350000000000005 h4.331 c0.932,0 1.282,0.6430000000000002 1.282,1.18 c0,0.515 -0.3170000000000001,1.198 -1.258,1.198 M12.213000000000001,0.07500000000000001 H0 v15.312 h6.02 v-5.216 h6.297 c3.636,0 5.767,-2.115 5.767,-5.057 c0,-3.165 -2.299,-5.04 -5.871,-5.04 M25.382,0 h-6.244 v15.484 H33.62 V11.59 h-8.24 zM35.172,15.484 h6.207 V0 h-6.207 zM49.096000000000004,9.4 h9.538 V5.584 h-9.538 V3.922 h10.097 V0.015000000000000008 H49.096000000000004 V0 h-6.165 v15.484 h6.165 v-0.002000000000000001 h10.387 v-3.908 H49.096000000000004 zM88.406,9.4 h9.538 V5.584 h-9.538 V3.922 h10.097 V0.015000000000000008 H88.406 V0 h-6.165 v15.484 h6.165 v-0.002000000000000001 h10.387 v-3.908 H88.406 zM69.66,10.338000000000001 h3.997 c-0.032000000000000015,0.3720000000000001 -0.06500000000000003,0.4170000000000001 -0.101,0.46 c-0.504,0.6140000000000002 -1.466,1.099 -3.014,1.099 c-2.302,0 -3.77,-1.213 -3.77,-3.673 c0,-2.231 0.8700000000000002,-4.027 3.6580000000000004,-4.027 c3.116,0 3.302,1.693 3.302,1.693 h6.864 c0,-2.904 -2.404,-5.8900000000000015 -10.323,-5.8900000000000015 C62.752,0 60,3.808 60,8.063 C60,13.17 63.866,16 69.545,16 c2.448,0 4.429,-0.785 5.85,-1.824 l-0.006000000000000004,1.508 h5.3 V7.077 H69.66 v3.261 zM111.752,6.308 h-4.847 V3.903 h4.824 c0.935,0 1.286,0.6500000000000002 1.286,1.193 c0,0.522 -0.3180000000000001,1.212 -1.263,1.212 zm8.248,9.168 l-3.68,-5.662 c2.028,-0.7130000000000002 3.168,-2.55 3.168,-4.718 c0,-3.2 -2.307,-5.096 -5.892,-5.096 h-12.734 v15.484 h6.043 V10.21 h2.6180000000000003 l3.433,5.266 h7.044 z" id="svg_2" fill="#ffffff" fill-opacity="1"/>
  </g></g></svg>